<?xml version="1.0" standalone="no"?>
<!DOCTYPE svg PUBLIC "-//W3C//DTD SVG 20010904//EN"
 "http://www.w3.org/TR/2001/REC-SVG-20010904/DTD/svg10.dtd">
<svg version="1.0" xmlns="http://www.w3.org/2000/svg"
 width="90.000000pt" height="90.000000pt" viewBox="0 0 90.000000 90.000000"
 preserveAspectRatio="xMidYMid meet">
<metadata>
Created by potrace 1.11, written by Peter Selinger 2001-2013
</metadata>
<g transform="translate(0.000000,90.000000) scale(0.100000,-0.100000)"
fill="#000000" stroke="none">
<path d="M605 851 c-180 -56 -280 -108 -363 -189 -66 -65 -87 -112 -87 -192 1
-82 33 -148 110 -224 58 -59 173 -141 182 -132 4 3 1 6 -5 6 -19 0 -134 113
-168 165 -66 103 -75 202 -29 299 48 101 172 188 365 255 45 16 84 32 87 35 9
8 10 8 -92 -23z"/>
<path d="M372 618 c7 -19 38 -22 38 -4 0 10 -9 16 -21 16 -12 0 -19 -5 -17
-12z"/>
<path d="M400 561 c0 -22 23 -34 38 -19 15 15 3 38 -19 38 -12 0 -19 -7 -19
-19z"/>
<path d="M328 506 c-8 -43 2 -57 35 -54 29 3 32 6 32 38 0 32 -2 35 -32 36
-24 1 -32 -4 -35 -20z"/>
<path d="M384 428 c-12 -19 -13 -62 -2 -75 15 -19 77 -17 85 3 10 26 10 58 0
72 -12 15 -73 16 -83 0z"/>
</g>
</svg>
